<svg xmlns="http://www.w3.org/2000/svg" viewBox="0 0 420 320" role="img" aria-label="Portal Hero">
  <rect x="0" y="240" width="420" height="60" rx="10" fill="#2946ba" opacity="0.7" />
  <circle cx="112" cy="105" r="44" fill="#f2f5ff" />
  <path d="M96 136c9 17 16 27 22 30 8 5 19 5 29 0 5-3 11-11 19-26 7 4 14 12 20 24 5 12 8 27 8 43H68c0-23 5-41 15-54 5-8 9-13 13-17z" fill="#1938a7" />
  <path d="M96 86c9-18 40-20 52-1 3 5 4 10 4 14H86c0-5 1-9 3-13z" fill="#0f214f" />
  <rect x="210" y="166" width="122" height="20" rx="10" fill="#2547c6" opacity="0.88" />
  <rect x="226" y="146" width="106" height="16" rx="8" fill="#2a53de" opacity="0.75" />
  <rect x="250" y="128" width="76" height="12" rx="6" fill="#5e81ff" opacity="0.68" />
  <path d="M292 88l8 15 16 3-11 11 3 16-16-8-15 8 3-16-12-11 16-3 8-15z" fill="#eef3ff" />
  <path d="M47 148l12 22 24 5-18 17 5 24-21-12-20 12 4-24-17-17 24-5 7-22z" fill="#d9e5ff" opacity="0.9" />
</svg>
